<?xml version="1.0" encoding="utf-8"?>
<!-- Generator: Adobe Illustrator 16.0.4, SVG Export Plug-In . SVG Version: 6.00 Build 0)  -->
<!DOCTYPE svg PUBLIC "-//W3C//DTD SVG 1.1//EN" "http://www.w3.org/Graphics/SVG/1.1/DTD/svg11.dtd">
<svg version="1.1" id="レイヤー_1" xmlns="http://www.w3.org/2000/svg" xmlns:xlink="http://www.w3.org/1999/xlink" x="0px"
	 y="0px" width="283.464px" height="357.165px" viewBox="0 0 283.464 357.165" enable-background="new 0 0 283.464 357.165"
	 xml:space="preserve">
<rect y="0.001" fill="#040000" width="283.464" height="357.162"/>
<g>
	<g>
		<path fill="#FFFFFF" d="M0,277.502h8.575l15.704,20.168h0.088v-20.168h8.574v32.984h-8.574L8.661,290.279H8.575v20.207H0V277.502z
			"/>
		<path fill="#FFFFFF" d="M46.938,304.758l-2.274,5.729h-9.1l12.687-32.984h9.361l12.424,32.984h-9.143l-2.144-5.729H46.938z
			 M52.932,287.695h-0.088l-3.543,10.502h7.131L52.932,287.695z"/>
		<path fill="#FFFFFF" d="M91.732,277.502h10.631l-13.124,15.619l14.305,17.365h-11.11l-11.068-14.303h-0.088v14.303h-8.573v-32.984
			h8.573v13.605h0.088L91.732,277.502z"/>
		<path fill="#FFFFFF" d="M114.262,304.758l-2.274,5.729h-9.1l12.687-32.984h9.36l12.425,32.984h-9.144l-2.144-5.729H114.262z
			 M120.254,287.695h-0.088l-3.542,10.502h7.131L120.254,287.695z"/>
		<path fill="#FFFFFF" d="M172.924,292.072c-0.088,4.809-0.438,8.922-3.369,13.033c-3.237,4.508-8.094,6.477-13.605,6.477
			c-10.367,0-17.586-7.045-17.586-17.41c0-10.719,7.262-17.764,17.894-17.764c6.78,0,12.03,3.064,14.873,9.23l-8.137,3.414
			c-1.182-3.15-3.676-5.25-7.132-5.25c-5.643,0-8.574,5.383-8.574,10.412c0,5.117,3.062,10.322,8.707,10.322
			c3.719,0,6.562-1.922,6.912-5.73h-7v-6.734H172.924z"/>
		<path fill="#FFFFFF" d="M205.47,277.502v18.551c0,4.244-0.175,8.443-3.457,11.635c-2.755,2.715-7.087,3.676-10.937,3.676
			c-3.851,0-8.18-0.961-10.936-3.676c-3.281-3.191-3.455-7.391-3.455-11.635v-18.551h8.573v17.369c0,4.289,0.307,8.969,5.817,8.969
			c5.513,0,5.818-4.68,5.818-8.969v-17.369H205.47z"/>
		<path fill="#FFFFFF" d="M234.473,288.57c-1.751-2.363-4.594-3.629-7.524-3.629c-5.25,0-8.794,4.023-8.794,9.143
			c0,5.207,3.587,8.969,8.925,8.969c2.8,0,5.599-1.357,7.394-3.5v10.277c-2.844,0.879-4.9,1.533-7.57,1.533
			c-4.592,0-8.967-1.75-12.38-4.855c-3.63-3.279-5.292-7.568-5.292-12.469c0-4.506,1.705-8.838,4.855-12.074
			c3.237-3.324,7.917-5.336,12.555-5.336c2.756,0,5.294,0.611,7.832,1.662V288.57z"/>
		<path fill="#FFFFFF" d="M260.718,290.234v-12.732h8.573v32.984h-8.573v-13.516h-12.38v13.516h-8.574v-32.984h8.574v12.732H260.718
			z"/>
		<path fill="#FFFFFF" d="M283.465,310.486h-8.575v-32.984h8.575V310.486z"/>
	</g>
	<g>
		<path fill="#EFEFEF" d="M102.858,328.748c-5.046,0-9.012,4.113-9.012,9.1c0,4.957,4.025,9.098,9.012,9.098
			s9.011-4.141,9.011-9.098C111.869,332.861,107.902,328.748,102.858,328.748z"/>
		<path fill="#EFEFEF" d="M132.255,333.094c0-3.615-2.654-3.965-5.6-3.965h-0.729v7.9h0.759
			C129.456,337.029,132.255,336.506,132.255,333.094z"/>
		<path fill="#EFEFEF" d="M78.623,332.803c0-3.324-2.1-3.674-5.103-3.674h-0.963v7.406h0.934
			C76.262,336.535,78.623,336.215,78.623,332.803z"/>
		<polygon fill="#EFEFEF" points="149.403,340.326 156.839,340.326 153.163,331.52 		"/>
		<path fill="#EFEFEF" d="M74.687,338.635h-2.129v7.932h2.449c2.742,0,5.628-0.67,5.628-4.023
			C80.635,339.131,77.369,338.635,74.687,338.635z"/>
		<polygon fill="#EFEFEF" points="48.177,340.326 55.613,340.326 51.938,331.52 		"/>
		<path fill="#EFEFEF" d="M201.225,328.748c-5.046,0-9.012,4.113-9.012,9.1c0,4.957,4.024,9.098,9.012,9.098s9.01-4.141,9.01-9.098
			C210.234,332.861,206.27,328.748,201.225,328.748z"/>
		<path fill="#EFEFEF" d="M230.621,333.094c0-3.615-2.653-3.965-5.6-3.965h-0.729v7.9h0.759
			C227.821,337.029,230.621,336.506,230.621,333.094z"/>
		<path fill="#EFEFEF" d="M0.008,318.596v38.484h283.449v-38.484H0.008z M35.637,348.84h-8.515v-21.986h2.449v19.713h6.065V348.84z
			 M59.171,348.84l-2.595-6.238h-9.391l-2.653,6.238h-2.684l10.148-23.035l9.887,23.035H59.171z M75.211,348.84h-5.103v-21.986
			h3.616c3.994,0,7.349,1.459,7.349,5.949c0,1.777-0.671,3.295-2.158,4.287c2.624,0.641,4.171,3.002,4.171,5.627
			C83.086,347.092,79.557,348.84,75.211,348.84z M102.858,349.221c-6.271,0-11.461-5.016-11.461-11.344
			c0-6.299,5.19-11.402,11.461-11.402c6.27,0,11.459,5.104,11.459,11.402C114.317,344.205,109.128,349.221,102.858,349.221z
			 M133.188,348.84l-6.649-9.652h-0.612v9.652h-2.449v-21.986h3.179c4.17,0,8.049,1.107,8.049,6.064
			c0,3.385-2.129,5.773-5.512,6.066l6.999,9.855H133.188z M160.396,348.84l-2.596-6.238h-9.39l-2.654,6.238h-2.683l10.147-23.035
			l9.887,23.035H160.396z M182.531,329.129h-5.366v19.711h-2.448v-19.711h-5.31v-2.275h13.124V329.129z M201.225,349.221
			c-6.269,0-11.46-5.016-11.46-11.344c0-6.299,5.191-11.402,11.46-11.402s11.461,5.104,11.461,11.402
			C212.686,344.205,207.493,349.221,201.225,349.221z M231.554,348.84l-6.648-9.652h-0.612v9.652h-2.45v-21.986h3.179
			c4.171,0,8.05,1.107,8.05,6.064c0,3.385-2.129,5.773-5.512,6.066l6.999,9.855H231.554z M251.152,339.393v9.447h-2.451v-9.447
			l-7.201-12.539h2.827l5.6,9.797l5.601-9.797h2.828L251.152,339.393z"/>
	</g>
	<polygon fill="#618D34" points="141.677,123.553 141.787,123.553 141.677,123.492 	"/>
	<g>
		<polygon fill="#B5B5B6" points="56.069,75.033 55.873,172.4 83.412,187.641 		"/>
		<polygon fill="#B5B5B6" points="56.069,75.033 81.616,109.842 85.081,57.826 		"/>
		<polygon fill="#B5B5B6" points="111.519,139.27 81.616,109.842 108.871,202.625 		"/>
		<polygon fill="#B5B5B6" points="111.519,139.27 140.057,221.092 140.057,26.052 		"/>
		<polygon fill="#B5B5B6" points="34.849,185.652 47.395,69.719 34.317,62.238 		"/>
		<polygon fill="#B5B5B6" points="142.084,15.14 47.395,69.719 34.317,62.238 		"/>
		<polygon fill="#B5B5B6" points="249.147,61.322 142.084,15.14 236.145,68.908 		"/>
		<polygon fill="#B5B5B6" points="249.147,61.322 248.6,184.73 236.145,68.908 		"/>
	</g>
	<g>
		<polygon fill="#EFEFEF" points="56.069,75.033 81.616,109.842 83.479,156.398 83.412,187.641 		"/>
		<polygon fill="#EFEFEF" points="111.519,139.27 81.616,109.842 85.081,57.826 		"/>
		<polygon fill="#EFEFEF" points="111.519,139.27 140.057,221.092 108.871,202.625 		"/>
		<polygon fill="#EFEFEF" points="111.519,139.27 108.283,84.109 108.177,44.477 140.057,26.052 		"/>
		<polygon fill="#EFEFEF" points="34.849,185.652 47.859,178.07 47.395,69.719 		"/>
		<polygon fill="#EFEFEF" points="34.317,62.238 142.084,15.14 142.013,0.085 		"/>
		<polygon fill="#EFEFEF" points="249.147,61.322 142.084,15.14 142.013,0.085 		"/>
		<polygon fill="#EFEFEF" points="235.521,177.264 248.6,184.73 236.145,68.908 		"/>
	</g>
	<g>
		<polygon fill="#C9CACA" points="235.528,177.264 248.607,184.73 149.505,227.57 		"/>
		<polygon fill="#C9CACA" points="141.977,244.807 141.95,277.414 149.505,227.57 		"/>
		<polygon fill="#C9CACA" points="34.856,185.652 47.868,178.07 134.477,227.574 		"/>
		<polygon fill="#C9CACA" points="141.95,277.414 141.977,244.807 134.477,227.574 		"/>
		<path fill="#C9CACA" d="M162.72,37.333l-18.282-11.668c0,32.622,0,163.077,0,195.669L162.72,37.333z"/>
		<polygon fill="#C9CACA" points="173.831,163.705 183.65,198.191 162.427,167.098 		"/>
		<polygon fill="#C9CACA" points="173.831,163.705 181.946,47.551 186.492,143.307 		"/>
		<polygon fill="#C9CACA" points="189.768,78.166 181.946,47.551 196.29,55.162 		"/>
		<polygon fill="#C9CACA" points="189.768,78.166 203.745,186.686 191.339,142.326 		"/>
		<polygon fill="#C9CACA" points="184.74,177.24 191.339,142.326 186.492,143.307 		"/>
		<polygon fill="#C9CACA" points="205.445,61.76 212.84,65.236 215.739,88.398 214.532,156.721 212.535,180.834 		"/>
		<path fill="#C9CACA" d="M218.744,107.303c-0.793,0.92-1.727,1.256-2.688,1.16l-0.681-0.07l2.593,12.219L218.744,107.303z"/>
		<path fill="#C9CACA" d="M218.151,89.328l11.29,4.32c-0.749-5.287-2.255-10.633-4.454-15.297l-9.248,10.047l1.146,0.33
			C217.341,88.861,217.766,89.053,218.151,89.328z"/>
		<path fill="#C9CACA" d="M219.009,106.979l7.859,8.055c2.755-4.633,3.603-11.863,2.81-19.428l-10.039,10.268
			C219.439,106.303,219.227,106.666,219.009,106.979z"/>
		<path fill="#C9CACA" d="M214.938,133.205l10.967-8.457c-1.687-2.027-4.417-3.801-6.983-4.178l-0.952,0.041L214.938,133.205z"/>
		<path fill="#C9CACA" d="M220.416,145.25l8.629,4.859c1.671-8.4,1.582-16.656-1.214-22.369l-7.104,14.709
			C220.669,143.375,220.567,144.316,220.416,145.25z"/>
		<path fill="#C9CACA" d="M221.966,169.678c2.707-4.854,4.943-10.617,6.399-16.471l-13.833,3.514L221.966,169.678z"/>
	</g>
	<g>
		<polygon fill="#FFFFFF" points="159.749,236.682 248.607,184.73 149.505,227.57 		"/>
		<polygon fill="#FFFFFF" points="159.749,236.682 141.95,277.414 149.505,227.57 		"/>
		<polygon fill="#FFFFFF" points="34.856,185.652 124.244,236.754 134.477,227.574 		"/>
		<polygon fill="#FFFFFF" points="141.95,277.414 124.244,236.754 134.477,227.574 		"/>
		<polygon fill="#FFFFFF" points="144.438,221.334 162.72,37.333 162.427,167.098 		"/>
		<polygon fill="#FFFFFF" points="144.438,221.334 183.65,198.191 162.427,167.098 		"/>
		<polygon fill="#FFFFFF" points="173.831,163.705 183.65,198.191 186.492,143.307 		"/>
		<polygon fill="#FFFFFF" points="189.768,78.166 181.946,47.551 186.492,143.307 		"/>
		<polygon fill="#FFFFFF" points="189.768,78.166 203.745,186.686 196.29,55.162 		"/>
		<polygon fill="#FFFFFF" points="193.077,192.588 203.745,186.686 191.339,142.326 		"/>
		<polygon fill="#FFFFFF" points="215.376,108.393 214.938,133.205 217.969,120.611 		"/>
		<path fill="#FFFFFF" d="M224.987,78.352c-2.92-6.182-7.039-11.156-12.147-13.115l2.899,23.162L224.987,78.352z"/>
		<path fill="#FFFFFF" d="M220.864,98.713c0.031-1.717,0.062-3.268,0,0.037c-0.07,3.924-0.041,1.906,0,0.029
			c-0.066,3.256-0.531,5.553-1.226,7.094l10.039-10.268c-0.069-0.65-0.149-1.301-0.236-1.957l-11.29-4.32
			C219.858,90.484,220.966,93.096,220.864,98.713z"/>
		<path fill="#FFFFFF" d="M218.921,120.57c3.726-0.035,6.08-2.381,7.947-5.537l-7.859-8.055c-0.084,0.115-0.167,0.223-0.265,0.324
			l-0.775,13.309L218.921,120.57z"/>
		<path fill="#FFFFFF" d="M220.728,142.449l7.104-14.709c-0.535-1.094-1.18-2.1-1.927-2.992l-10.967,8.457l0.908-0.117
			C219.864,132.588,221.053,137.189,220.728,142.449z"/>
		<path fill="#FFFFFF" d="M220.416,145.25c-0.809,5.283-2.87,10.436-4.93,11.139l-0.954,0.332l13.833-3.514
			c0.252-1.031,0.477-2.072,0.68-3.098L220.416,145.25z"/>
		<path fill="#FFFFFF" d="M221.966,169.678l-7.434-12.957l-1.997,24.113C215.93,178.674,219.2,174.656,221.966,169.678z"/>
		<polygon fill="#FFFFFF" points="205.445,61.76 203.745,186.686 212.535,180.834 		"/>
	</g>
</g>
</svg>
