<?xml version="1.0" encoding="utf-8"?>
<!-- Generator: Adobe Illustrator 16.0.4, SVG Export Plug-In . SVG Version: 6.00 Build 0)  -->
<!DOCTYPE svg PUBLIC "-//W3C//DTD SVG 1.1//EN" "http://www.w3.org/Graphics/SVG/1.1/DTD/svg11.dtd">
<svg version="1.1" id="レイヤー_1" xmlns="http://www.w3.org/2000/svg" xmlns:xlink="http://www.w3.org/1999/xlink" x="0px"
	 y="0px" width="283.464px" height="357.165px" viewBox="0 0 283.464 357.165" enable-background="new 0 0 283.464 357.165"
	 xml:space="preserve">
<g>
	<g>
		<path fill="#1369A7" d="M0.236,277.421h8.567l15.691,20.15h0.088v-20.15h8.567v32.957h-8.567L8.891,290.186H8.804v20.192H0.236
			V277.421z"/>
		<path fill="#1369A7" d="M47.136,304.652l-2.272,5.726h-9.092l12.676-32.957h9.354l12.414,32.957h-9.136l-2.142-5.726H47.136z
			 M53.124,287.605h-0.088l-3.54,10.491h7.125L53.124,287.605z"/>
		<path fill="#1369A7" d="M91.893,277.421h10.622l-13.113,15.604l14.293,17.353H92.593l-11.059-14.293h-0.088v14.293H72.88v-32.957
			h8.566v13.594h0.088L91.893,277.421z"/>
		<path fill="#1369A7" d="M114.402,304.652l-2.272,5.726h-9.092l12.676-32.957h9.354l12.414,32.957h-9.136l-2.142-5.726H114.402z
			 M120.391,287.605h-0.088l-3.54,10.491h7.125L120.391,287.605z"/>
		<path fill="#1369A7" d="M173.016,291.978c-0.088,4.807-0.438,8.915-3.366,13.024c-3.234,4.502-8.086,6.47-13.594,6.47
			c-10.358,0-17.571-7.038-17.571-17.396c0-10.709,7.256-17.747,17.879-17.747c6.774,0,12.02,3.06,14.86,9.223l-8.13,3.41
			c-1.181-3.147-3.672-5.246-7.126-5.246c-5.638,0-8.566,5.378-8.566,10.403c0,5.114,3.06,10.315,8.699,10.315
			c3.716,0,6.557-1.923,6.906-5.727h-6.994v-6.729H173.016z"/>
		<path fill="#1369A7" d="M205.535,277.421v18.533c0,4.241-0.175,8.437-3.454,11.627c-2.754,2.711-7.081,3.672-10.927,3.672
			c-3.848,0-8.174-0.961-10.928-3.672c-3.278-3.19-3.452-7.386-3.452-11.627v-18.533h8.566v17.354c0,4.284,0.307,8.96,5.813,8.96
			s5.812-4.676,5.812-8.96v-17.354H205.535z"/>
		<path fill="#1369A7" d="M234.514,288.479c-1.749-2.36-4.59-3.628-7.519-3.628c-5.245,0-8.786,4.021-8.786,9.136
			c0,5.202,3.583,8.961,8.917,8.961c2.798,0,5.595-1.356,7.388-3.497v10.271c-2.842,0.875-4.896,1.53-7.563,1.53
			c-4.589,0-8.96-1.749-12.37-4.853c-3.627-3.276-5.287-7.562-5.287-12.457c0-4.502,1.703-8.83,4.851-12.064
			c3.235-3.321,7.911-5.332,12.545-5.332c2.754,0,5.289,0.612,7.825,1.661V288.479z"/>
		<path fill="#1369A7" d="M260.737,290.141v-12.72h8.566v32.957h-8.566v-13.506h-12.37v13.506H239.8v-32.957h8.567v12.72H260.737z"
			/>
		<path fill="#1369A7" d="M283.465,310.378h-8.567v-32.957h8.567V310.378z"/>
	</g>
	<g>
		<path fill="#268840" d="M102.765,328.624c-5.041,0-9.004,4.108-9.004,9.091c0,4.954,4.021,9.091,9.004,9.091
			s9.004-4.137,9.004-9.091C111.769,332.732,107.805,328.624,102.765,328.624z"/>
		<path fill="#268840" d="M132.137,332.965c0-3.613-2.651-3.962-5.595-3.962h-0.729v7.895h0.758
			C129.34,336.897,132.137,336.375,132.137,332.965z"/>
		<path fill="#268840" d="M78.55,332.675c0-3.323-2.098-3.672-5.099-3.672h-0.962v7.401h0.933
			C76.19,336.404,78.55,336.084,78.55,332.675z"/>
		<polygon fill="#268840" points="149.271,340.191 156.701,340.191 153.028,331.392 		"/>
		<path fill="#268840" d="M74.616,338.502h-2.127v7.925h2.448c2.738,0,5.623-0.671,5.623-4.021
			C80.561,338.997,77.297,338.502,74.616,338.502z"/>
		<polygon fill="#268840" points="48.129,340.191 55.56,340.191 51.888,331.392 		"/>
		<path fill="#268840" d="M201.05,328.624c-5.042,0-9.005,4.108-9.005,9.091c0,4.954,4.021,9.091,9.005,9.091
			c4.982,0,9.002-4.137,9.002-9.091C210.052,332.732,206.09,328.624,201.05,328.624z"/>
		<path fill="#268840" d="M230.422,332.965c0-3.613-2.652-3.962-5.596-3.962h-0.728v7.895h0.758
			C227.624,336.897,230.422,336.375,230.422,332.965z"/>
		<path fill="#268840" d="M0,318.479v38.452h283.213v-38.452H0z M35.6,348.699h-8.508v-21.97h2.447v19.697H35.6V348.699z
			 M59.114,348.699l-2.593-6.235h-9.383l-2.651,6.235h-2.681l10.14-23.019l9.878,23.019H59.114z M75.141,348.699h-5.099v-21.97
			h3.613c3.991,0,7.343,1.458,7.343,5.945c0,1.775-0.67,3.292-2.156,4.282c2.622,0.641,4.167,3.001,4.167,5.624
			C83.009,346.952,79.482,348.699,75.141,348.699z M102.765,349.078c-6.265,0-11.451-5.013-11.451-11.335
			c0-6.293,5.187-11.393,11.451-11.393s11.45,5.1,11.45,11.393C114.215,344.065,109.029,349.078,102.765,349.078z M133.069,348.699
			l-6.644-9.645h-0.612v9.645h-2.447v-21.97h3.176c4.167,0,8.042,1.107,8.042,6.062c0,3.38-2.127,5.769-5.507,6.061l6.993,9.848
			H133.069z M160.255,348.699l-2.593-6.235h-9.382l-2.652,6.235h-2.681l10.14-23.019l9.878,23.019H160.255z M182.371,329.003h-5.361
			v19.696h-2.446v-19.696h-5.305v-2.273h13.112V329.003z M201.05,349.078c-6.265,0-11.451-5.013-11.451-11.335
			c0-6.293,5.187-11.393,11.451-11.393c6.263,0,11.451,5.1,11.451,11.393C212.501,344.065,207.312,349.078,201.05,349.078z
			 M231.354,348.699l-6.644-9.645h-0.611v9.645h-2.448v-21.97h3.176c4.167,0,8.043,1.107,8.043,6.062
			c0,3.38-2.127,5.769-5.507,6.061l6.993,9.848H231.354z M250.936,339.259v9.44h-2.448v-9.44l-7.196-12.529h2.826l5.594,9.791
			l5.596-9.791h2.825L250.936,339.259z"/>
	</g>
	<polygon fill="#618D34" points="140.034,123.598 140.146,123.598 140.034,123.537 	"/>
	<g>
		<polygon fill="#22A16B" points="55.802,75.119 55.606,172.405 83.123,187.633 		"/>
		<polygon fill="#22A16B" points="55.802,75.119 81.327,109.899 84.79,57.927 		"/>
		<polygon fill="#22A16B" points="111.205,139.304 81.327,109.899 108.561,202.604 		"/>
		<polygon fill="#22A16B" points="111.205,139.304 139.72,221.057 139.72,26.18 		"/>
		<polygon fill="#22A16B" points="34.6,185.647 47.135,69.808 34.068,62.336 		"/>
		<polygon fill="#22A16B" points="141.745,15.276 47.135,69.808 34.068,62.336 		"/>
		<polygon fill="#22A16B" points="248.72,61.42 141.745,15.276 235.728,69 		"/>
		<polygon fill="#22A16B" points="248.72,61.42 248.172,184.724 235.728,69 		"/>
	</g>
	<g>
		<polygon fill="#268840" points="55.802,75.119 81.327,109.899 83.189,156.416 83.123,187.633 		"/>
		<polygon fill="#268840" points="111.205,139.304 81.327,109.899 84.79,57.927 		"/>
		<polygon fill="#268840" points="111.205,139.304 139.72,221.057 108.561,202.604 		"/>
		<polygon fill="#268840" points="111.205,139.304 107.973,84.188 107.866,44.588 139.72,26.18 		"/>
		<polygon fill="#268840" points="34.6,185.647 47.6,178.069 47.135,69.808 		"/>
		<polygon fill="#268840" points="34.068,62.336 141.745,15.276 141.675,0.234 		"/>
		<polygon fill="#268840" points="248.72,61.42 141.745,15.276 141.675,0.234 		"/>
		<polygon fill="#268840" points="235.104,177.265 248.172,184.724 235.728,69 		"/>
	</g>
	<g>
		<polygon fill="#3C97C7" points="235.104,177.265 248.172,184.724 149.151,227.529 		"/>
		<polygon fill="#3C97C7" points="141.63,244.752 141.604,277.331 149.151,227.529 		"/>
		<polygon fill="#3C97C7" points="34.6,185.647 47.6,178.069 134.136,227.534 		"/>
		<polygon fill="#3C97C7" points="141.604,277.331 141.63,244.752 134.136,227.534 		"/>
		<path fill="#3C97C7" d="M162.355,37.451l-18.267-11.659c0,32.596,0,162.942,0,195.507L162.355,37.451z"/>
		<polygon fill="#3C97C7" points="173.458,163.717 183.269,198.174 162.062,167.106 		"/>
		<polygon fill="#3C97C7" points="173.458,163.717 181.566,47.66 186.108,143.336 		"/>
		<polygon fill="#3C97C7" points="189.381,78.249 181.566,47.66 195.898,55.266 		"/>
		<polygon fill="#3C97C7" points="189.381,78.249 203.348,186.678 190.95,142.355 		"/>
		<polygon fill="#3C97C7" points="184.357,177.242 190.95,142.355 186.108,143.336 		"/>
		<polygon fill="#3C97C7" points="205.046,61.857 212.435,65.329 215.331,88.473 214.125,156.739 212.13,180.833 		"/>
		<path fill="#3C97C7" d="M218.333,107.361c-0.792,0.92-1.725,1.256-2.685,1.159l-0.681-0.07l2.591,12.208L218.333,107.361z"/>
		<path fill="#3C97C7" d="M217.741,89.401l11.28,4.319c-0.748-5.284-2.252-10.625-4.45-15.285l-9.24,10.037l1.145,0.332
			C216.932,88.937,217.356,89.126,217.741,89.401z"/>
		<path fill="#3C97C7" d="M218.598,107.039l7.854,8.048c2.751-4.631,3.6-11.855,2.808-19.412l-10.032,10.259
			C219.028,106.363,218.815,106.725,218.598,107.039z"/>
		<path fill="#3C97C7" d="M214.53,133.242l10.957-8.45c-1.685-2.025-4.413-3.798-6.978-4.175l-0.951,0.041L214.53,133.242z"/>
		<path fill="#3C97C7" d="M220.004,145.277l8.622,4.854c1.668-8.392,1.58-16.642-1.214-22.351l-7.098,14.698
			C220.257,143.403,220.155,144.345,220.004,145.277z"/>
		<path fill="#3C97C7" d="M221.553,169.685c2.705-4.85,4.938-10.607,6.394-16.457l-13.821,3.512L221.553,169.685z"/>
	</g>
	<g>
		<polygon fill="#1369A7" points="159.388,236.634 248.172,184.724 149.151,227.529 		"/>
		<polygon fill="#1369A7" points="159.388,236.634 141.604,277.331 149.151,227.529 		"/>
		<polygon fill="#1369A7" points="34.6,185.647 123.913,236.705 134.136,227.534 		"/>
		<polygon fill="#1369A7" points="141.604,277.331 123.913,236.705 134.136,227.534 		"/>
		<polygon fill="#1369A7" points="144.089,221.299 162.355,37.451 162.062,167.106 		"/>
		<polygon fill="#1369A7" points="144.089,221.299 183.269,198.174 162.062,167.106 		"/>
		<polygon fill="#1369A7" points="173.458,163.717 183.269,198.174 186.108,143.336 		"/>
		<polygon fill="#1369A7" points="189.381,78.249 181.566,47.66 186.108,143.336 		"/>
		<polygon fill="#1369A7" points="189.381,78.249 203.348,186.678 195.898,55.266 		"/>
		<polygon fill="#1369A7" points="192.688,192.576 203.348,186.678 190.95,142.355 		"/>
		<polygon fill="#1369A7" points="214.968,108.45 214.53,133.242 217.559,120.658 		"/>
		<path fill="#1369A7" d="M224.571,78.436c-2.917-6.177-7.033-11.147-12.137-13.106l2.896,23.144L224.571,78.436z"/>
		<path fill="#1369A7" d="M220.451,98.779c0.031-1.716,0.062-3.264,0,0.036c-0.07,3.921-0.039,1.904,0,0.03
			c-0.066,3.255-0.53,5.549-1.225,7.088l10.032-10.259c-0.07-0.649-0.149-1.299-0.237-1.954l-11.28-4.319
			C219.447,90.56,220.553,93.168,220.451,98.779z"/>
		<path fill="#1369A7" d="M218.51,120.617c3.724-0.035,6.075-2.379,7.941-5.53l-7.854-8.048c-0.083,0.115-0.167,0.221-0.265,0.322
			l-0.774,13.297L218.51,120.617z"/>
		<path fill="#1369A7" d="M220.314,142.479l7.098-14.698c-0.535-1.092-1.178-2.096-1.925-2.989l-10.957,8.45l0.907-0.115
			C219.452,132.627,220.641,137.226,220.314,142.479z"/>
		<path fill="#1369A7" d="M220.004,145.277c-0.808,5.279-2.868,10.427-4.925,11.13l-0.954,0.332l13.821-3.512
			c0.252-1.03,0.477-2.069,0.68-3.096L220.004,145.277z"/>
		<path fill="#1369A7" d="M221.553,169.685l-7.428-12.945l-1.995,24.094C215.521,178.674,218.789,174.659,221.553,169.685z"/>
		<polygon fill="#1369A7" points="205.046,61.857 203.348,186.678 212.13,180.833 		"/>
	</g>
</g>
</svg>
