<?xml version="1.0" encoding="utf-8"?>
<!-- Generator: Adobe Illustrator 16.0.4, SVG Export Plug-In . SVG Version: 6.00 Build 0)  -->
<!DOCTYPE svg PUBLIC "-//W3C//DTD SVG 1.1//EN" "http://www.w3.org/Graphics/SVG/1.1/DTD/svg11.dtd">
<svg version="1.1" id="レイヤー_1" xmlns="http://www.w3.org/2000/svg" xmlns:xlink="http://www.w3.org/1999/xlink" x="0px"
	 y="0px" width="283.465px" height="82.205px" viewBox="0 0 283.465 82.205" enable-background="new 0 0 283.465 82.205"
	 xml:space="preserve">
<rect width="283.465" height="82.205"/>
<g>
	<g>
		<path fill="#FFFFFF" d="M0.232,1.898H8.8l15.693,20.148h0.088V1.898h8.567v32.958h-8.567L8.888,14.66H8.8v20.196H0.232V1.898z"/>
		<path fill="#FFFFFF" d="M47.133,29.129l-2.272,5.728h-9.093L48.444,1.898h9.354l12.415,32.958h-9.136l-2.142-5.728H47.133z
			 M53.122,12.083h-0.088l-3.541,10.491h7.125L53.122,12.083z"/>
		<path fill="#FFFFFF" d="M91.891,1.898h10.622L89.399,17.503l14.293,17.354H92.591L81.53,20.563h-0.087v14.293h-8.567V1.898h8.567
			v13.593h0.087L91.891,1.898z"/>
		<path fill="#FFFFFF" d="M114.4,29.129l-2.272,5.728h-9.093l12.677-32.958h9.354l12.416,32.958h-9.137l-2.142-5.728H114.4z
			 M120.389,12.083h-0.086l-3.542,10.491h7.125L120.389,12.083z"/>
		<path fill="#FFFFFF" d="M173.016,16.451c-0.089,4.809-0.437,8.921-3.366,13.028c-3.236,4.503-8.087,6.469-13.593,6.469
			c-10.362,0-17.574-7.037-17.574-17.396c0-10.712,7.256-17.75,17.876-17.75c6.778,0,12.022,3.061,14.865,9.225l-8.133,3.409
			c-1.178-3.146-3.671-5.246-7.124-5.246c-5.639,0-8.568,5.377-8.568,10.403c0,5.117,3.062,10.317,8.7,10.317
			c3.716,0,6.556-1.924,6.905-5.728h-6.992v-6.732H173.016z"/>
		<path fill="#FFFFFF" d="M205.534,1.898v18.533c0,4.239-0.174,8.438-3.453,11.627c-2.752,2.711-7.082,3.672-10.93,3.672
			c-3.845,0-8.172-0.961-10.927-3.672c-3.277-3.189-3.453-7.388-3.453-11.627V1.898h8.566v17.351c0,4.285,0.308,8.962,5.813,8.962
			c5.512,0,5.814-4.677,5.814-8.962V1.898H205.534z"/>
		<path fill="#FFFFFF" d="M234.514,12.957c-1.748-2.361-4.591-3.629-7.52-3.629c-5.245,0-8.785,4.021-8.785,9.134
			c0,5.204,3.585,8.962,8.917,8.962c2.797,0,5.595-1.353,7.388-3.494v10.271c-2.84,0.874-4.896,1.529-7.562,1.529
			c-4.593,0-8.961-1.748-12.372-4.851c-3.63-3.279-5.288-7.564-5.288-12.459c0-4.503,1.704-8.83,4.852-12.064
			c3.233-3.324,7.913-5.335,12.545-5.335c2.757,0,5.287,0.614,7.825,1.661V12.957z"/>
		<path fill="#FFFFFF" d="M260.736,14.618V1.898h8.569v32.958h-8.569V21.35h-12.37v13.507h-8.565V1.898h8.565v12.72H260.736z"/>
		<path fill="#FFFFFF" d="M283.465,34.856h-8.569V1.898h8.569V34.856z"/>
	</g>
	<g>
		<path fill="#EEEFEF" d="M102.766,53.102c-5.04,0-9.005,4.111-9.005,9.096c0,4.951,4.021,9.09,9.005,9.09s9.005-4.139,9.005-9.09
			C111.771,57.213,107.808,53.102,102.766,53.102z"/>
		<path fill="#EEEFEF" d="M74.617,62.981H72.49v7.926h2.448c2.74,0,5.624-0.667,5.624-4.022
			C80.562,63.479,77.299,62.981,74.617,62.981z"/>
		<path fill="#EEEFEF" d="M132.14,57.448c0-3.618-2.652-3.966-5.596-3.966h-0.728v7.897h0.758
			C129.342,61.38,132.14,60.853,132.14,57.448z"/>
		<path fill="#EEEFEF" d="M0,42.952v38.45h283.216v-38.45H0z M35.603,73.181h-8.51V51.208h2.448v19.699h6.062V73.181z
			 M59.117,73.181l-2.594-6.234h-9.383l-2.651,6.234h-2.682l10.142-23.02l9.879,23.02H59.117z M75.143,73.181h-5.1V51.208h3.614
			c3.991,0,7.343,1.456,7.343,5.948c0,1.775-0.67,3.288-2.156,4.278c2.622,0.646,4.167,3.003,4.167,5.63
			C83.011,71.433,79.484,73.181,75.143,73.181z M102.766,73.562c-6.266,0-11.452-5.013-11.452-11.337
			c0-6.295,5.187-11.397,11.452-11.397c6.267,0,11.453,5.103,11.453,11.397C114.219,68.549,109.032,73.562,102.766,73.562z
			 M133.072,73.181l-6.645-9.645h-0.611v9.645h-2.448V51.208h3.176c4.169,0,8.045,1.109,8.045,6.061
			c0,3.383-2.129,5.774-5.509,6.065l6.994,9.847H133.072z M160.26,73.181l-2.596-6.234h-9.381l-2.652,6.234h-2.683l10.144-23.02
			l9.877,23.02H160.26z M182.375,53.482h-5.362v19.698h-2.448V53.482h-5.304v-2.274h13.114V53.482z M201.055,73.562
			c-6.269,0-11.454-5.013-11.454-11.337c0-6.295,5.186-11.397,11.454-11.397c6.264,0,11.45,5.103,11.45,11.397
			C212.505,68.549,207.318,73.562,201.055,73.562z M231.356,73.181l-6.646-9.645h-0.609v9.645h-2.448V51.208h3.176
			c4.167,0,8.043,1.109,8.043,6.061c0,3.383-2.128,5.774-5.505,6.065l6.992,9.847H231.356z M250.938,63.737v9.443h-2.447v-9.443
			l-7.197-12.529h2.825l5.596,9.791l5.596-9.791h2.828L250.938,63.737z"/>
		<polygon fill="#EEEFEF" points="48.131,64.673 55.562,64.673 51.891,55.874 		"/>
		<polygon fill="#EEEFEF" points="149.272,64.673 156.704,64.673 153.032,55.874 		"/>
		<path fill="#EEEFEF" d="M78.552,57.156c0-3.326-2.098-3.674-5.099-3.674H72.49v7.404h0.933
			C76.191,60.887,78.552,60.562,78.552,57.156z"/>
		<path fill="#EEEFEF" d="M230.425,57.448c0-3.618-2.651-3.966-5.596-3.966h-0.728v7.897h0.756
			C227.627,61.38,230.425,60.853,230.425,57.448z"/>
		<path fill="#EEEFEF" d="M201.055,53.102c-5.041,0-9.007,4.111-9.007,9.096c0,4.951,4.021,9.09,9.007,9.09
			c4.981,0,9.003-4.139,9.003-9.09C210.058,57.213,206.094,53.102,201.055,53.102z"/>
	</g>
</g>
</svg>
