<?xml version="1.0" encoding="utf-8"?>
<!-- Generator: Adobe Illustrator 16.0.4, SVG Export Plug-In . SVG Version: 6.00 Build 0)  -->
<!DOCTYPE svg PUBLIC "-//W3C//DTD SVG 1.1//EN" "http://www.w3.org/Graphics/SVG/1.1/DTD/svg11.dtd">
<svg version="1.1" id="レイヤー_1" xmlns="http://www.w3.org/2000/svg" xmlns:xlink="http://www.w3.org/1999/xlink" x="0px"
	 y="0px" width="283.464px" height="82.205px" viewBox="0 0 283.464 82.205" enable-background="new 0 0 283.464 82.205"
	 xml:space="preserve">
<g>
	<g>
		<path fill="#1369A7" d="M0.231,1.897h8.567l15.692,20.15h0.088V1.897h8.566v32.958h-8.566L8.887,14.661H8.799v20.194H0.231V1.897z
			"/>
		<path fill="#1369A7" d="M47.132,29.13l-2.273,5.726h-9.092L48.442,1.897h9.354l12.414,32.958h-9.136l-2.142-5.726H47.132z
			 M53.12,12.082h-0.088l-3.54,10.491h7.124L53.12,12.082z"/>
		<path fill="#1369A7" d="M91.89,1.897h10.622L89.398,17.502l14.294,17.354H92.589L81.53,20.562h-0.087v14.293h-8.568V1.897h8.568
			v13.595h0.087L91.89,1.897z"/>
		<path fill="#1369A7" d="M114.399,29.13l-2.273,5.726h-9.092l12.677-32.958h9.354l12.414,32.958h-9.135l-2.143-5.726H114.399z
			 M120.388,12.082H120.3l-3.54,10.491h7.125L120.388,12.082z"/>
		<path fill="#1369A7" d="M173.015,16.453c-0.088,4.809-0.438,8.917-3.366,13.026c-3.234,4.502-8.086,6.469-13.594,6.469
			c-10.36,0-17.573-7.037-17.573-17.396c0-10.71,7.257-17.747,17.879-17.747c6.775,0,12.021,3.06,14.861,9.223l-8.13,3.41
			c-1.18-3.147-3.672-5.245-7.125-5.245c-5.639,0-8.567,5.376-8.567,10.403c0,5.113,3.06,10.315,8.698,10.315
			c3.715,0,6.557-1.924,6.906-5.727h-6.993v-6.731H173.015z"/>
		<path fill="#1369A7" d="M205.533,1.897v18.534c0,4.239-0.175,8.436-3.453,11.626c-2.754,2.711-7.081,3.673-10.928,3.673
			s-8.174-0.962-10.928-3.673c-3.278-3.19-3.453-7.387-3.453-11.626V1.897h8.567v17.354c0,4.283,0.306,8.961,5.813,8.961
			s5.813-4.678,5.813-8.961V1.897H205.533z"/>
		<path fill="#1369A7" d="M234.513,12.956c-1.749-2.36-4.59-3.628-7.519-3.628c-5.246,0-8.786,4.021-8.786,9.136
			c0,5.202,3.584,8.961,8.917,8.961c2.798,0,5.596-1.355,7.388-3.497V34.2c-2.841,0.874-4.896,1.53-7.562,1.53
			c-4.59,0-8.961-1.749-12.37-4.853c-3.628-3.278-5.289-7.562-5.289-12.457c0-4.503,1.705-8.83,4.852-12.065
			c3.235-3.321,7.912-5.332,12.545-5.332c2.754,0,5.289,0.611,7.825,1.661V12.956z"/>
		<path fill="#1369A7" d="M260.737,14.617V1.897h8.567v32.958h-8.567V21.349h-12.371v13.507H239.8V1.897h8.566v12.72H260.737z"/>
		<path fill="#1369A7" d="M283.465,34.855h-8.567V1.897h8.567V34.855z"/>
	</g>
	<g>
		<polygon fill="#268840" points="149.273,64.671 156.704,64.671 153.033,55.871 		"/>
		<path fill="#268840" d="M201.055,53.104c-5.041,0-9.005,4.108-9.005,9.091c0,4.953,4.021,9.091,9.005,9.091
			c4.982,0,9.003-4.138,9.003-9.091C210.058,57.212,206.096,53.104,201.055,53.104z"/>
		<path fill="#268840" d="M74.619,62.98h-2.127v7.926h2.447c2.739,0,5.624-0.67,5.624-4.021C80.563,63.477,77.3,62.98,74.619,62.98z
			"/>
		<path fill="#268840" d="M78.553,57.153c0-3.322-2.098-3.671-5.1-3.671h-0.961v7.401h0.933
			C76.192,60.884,78.553,60.562,78.553,57.153z"/>
		<path fill="#268840" d="M102.768,53.104c-5.041,0-9.004,4.108-9.004,9.091c0,4.953,4.021,9.091,9.004,9.091
			s9.004-4.138,9.004-9.091C111.771,57.212,107.809,53.104,102.768,53.104z"/>
		<path fill="#268840" d="M132.14,57.445c0-3.614-2.651-3.963-5.595-3.963h-0.729v7.896h0.758
			C129.343,61.379,132.14,60.854,132.14,57.445z"/>
		<polygon fill="#268840" points="48.132,64.671 55.562,64.671 51.891,55.871 		"/>
		<path fill="#268840" d="M230.427,57.445c0-3.614-2.651-3.963-5.595-3.963h-0.729v7.896h0.758
			C227.63,61.379,230.427,60.854,230.427,57.445z"/>
		<path fill="#268840" d="M0,42.95V81.4h283.217V42.95H0z M35.602,73.18h-8.509V51.21h2.447v19.696h6.062V73.18z M59.117,73.18
			l-2.594-6.235h-9.383l-2.651,6.235h-2.681l10.14-23.02l9.878,23.02H59.117z M75.144,73.18h-5.1V51.21h3.613
			c3.992,0,7.343,1.456,7.343,5.943c0,1.777-0.67,3.293-2.156,4.283c2.623,0.642,4.167,3.002,4.167,5.624
			C83.011,71.432,79.485,73.18,75.144,73.18z M102.768,73.559c-6.266,0-11.451-5.013-11.451-11.335
			c0-6.294,5.186-11.394,11.451-11.394c6.265,0,11.451,5.1,11.451,11.394C114.219,68.546,109.032,73.559,102.768,73.559z
			 M133.072,73.18l-6.644-9.645h-0.612v9.645h-2.447V51.21h3.176c4.167,0,8.043,1.106,8.043,6.061c0,3.38-2.127,5.769-5.507,6.06
			l6.992,9.85H133.072z M160.259,73.18l-2.593-6.235h-9.382l-2.652,6.235h-2.681l10.141-23.02l9.877,23.02H160.259z M182.376,53.482
			h-5.361V73.18h-2.447V53.482h-5.304V51.21h13.112V53.482z M201.055,73.559c-6.265,0-11.452-5.013-11.452-11.335
			c0-6.294,5.188-11.394,11.452-11.394s11.451,5.1,11.451,11.394C212.506,68.546,207.319,73.559,201.055,73.559z M231.359,73.18
			l-6.644-9.645h-0.612v9.645h-2.447V51.21h3.176c4.167,0,8.042,1.106,8.042,6.061c0,3.38-2.127,5.769-5.507,6.06l6.993,9.85
			H231.359z M250.94,63.739v9.44h-2.448v-9.44l-7.196-12.529h2.826l5.595,9.79l5.595-9.79h2.826L250.94,63.739z"/>
	</g>
</g>
</svg>
