<?xml version="1.0" encoding="utf-8"?>
<!-- Generator: Adobe Illustrator 16.0.4, SVG Export Plug-In . SVG Version: 6.00 Build 0)  -->
<!DOCTYPE svg PUBLIC "-//W3C//DTD SVG 1.1//EN" "http://www.w3.org/Graphics/SVG/1.1/DTD/svg11.dtd">
<svg version="1.1" id="レイヤー_1" xmlns="http://www.w3.org/2000/svg" xmlns:xlink="http://www.w3.org/1999/xlink" x="0px"
	 y="0px" width="283.464px" height="85.039px" viewBox="0 0 283.464 85.039" enable-background="new 0 0 283.464 85.039"
	 xml:space="preserve">
<g>
	<g>
		<path fill="#1369A7" d="M83.562,9.699h6.043l11.069,14.215h0.062V9.699h6.043v23.249h-6.043l-11.07-14.245h-0.062v14.245h-6.043
			V9.699z"/>
		<path fill="#1369A7" d="M116.66,28.909l-1.603,4.039h-6.414l8.942-23.249h6.598l8.757,23.249h-6.444l-1.51-4.039H116.66z
			 M120.885,16.884h-0.062l-2.498,7.4h5.026L120.885,16.884z"/>
		<path fill="#1369A7" d="M148.247,9.699h7.492l-9.249,11.009l10.081,12.24h-7.831l-7.801-10.082h-0.062v10.082h-6.043V9.699h6.043
			v9.589h0.062L148.247,9.699z"/>
		<path fill="#1369A7" d="M164.138,28.909l-1.604,4.039h-6.413l8.942-23.249h6.599l8.757,23.249h-6.444l-1.512-4.039H164.138z
			 M168.362,16.884h-0.061l-2.498,7.4h5.026L168.362,16.884z"/>
		<path fill="#1369A7" d="M205.499,19.968c-0.062,3.392-0.309,6.289-2.374,9.188c-2.282,3.176-5.705,4.563-9.59,4.563
			c-7.308,0-12.395-4.964-12.395-12.272c0-7.554,5.117-12.519,12.61-12.519c4.779,0,8.479,2.158,10.483,6.507L198.5,17.84
			c-0.833-2.22-2.59-3.7-5.026-3.7c-3.978,0-6.044,3.792-6.044,7.339c0,3.607,2.159,7.277,6.137,7.277
			c2.62,0,4.624-1.357,4.872-4.04h-4.934v-4.748H205.499z"/>
		<path fill="#1369A7" d="M228.454,9.699v13.073c0,2.992-0.123,5.952-2.436,8.203c-1.943,1.911-4.996,2.59-7.708,2.59
			c-2.715,0-5.768-0.679-7.709-2.59c-2.313-2.251-2.437-5.211-2.437-8.203V9.699h6.044V21.94c0,3.021,0.216,6.32,4.102,6.32
			c3.884,0,4.101-3.299,4.101-6.32V9.699H228.454z"/>
		<path fill="#1369A7" d="M248.909,17.5c-1.234-1.664-3.238-2.559-5.303-2.559c-3.7,0-6.198,2.838-6.198,6.444
			c0,3.67,2.528,6.322,6.29,6.322c1.973,0,3.946-0.956,5.211-2.468v7.246c-2.005,0.616-3.454,1.079-5.335,1.079
			c-3.236,0-6.32-1.233-8.726-3.423c-2.56-2.312-3.731-5.334-3.731-8.787c0-3.176,1.203-6.229,3.423-8.512
			c2.282-2.343,5.582-3.761,8.85-3.761c1.942,0,3.731,0.432,5.52,1.172V17.5z"/>
		<path fill="#1369A7" d="M267.419,18.672V9.699h6.043v23.249h-6.043v-9.527h-8.727v9.527h-6.044V9.699h6.044v8.973H267.419z"/>
		<path fill="#1369A7" d="M283.465,32.948h-6.044V9.699h6.044V32.948z"/>
	</g>
	<rect x="83.397" y="38.661" fill="#268840" width="199.894" height="27.139"/>
	<g>
		<path fill="#FFFFFF" d="M104.246,58.393h4.279v1.604h-6.006v-15.51h1.727V58.393z"/>
		<path fill="#FFFFFF" d="M116.67,55.595l-1.871,4.401h-1.893l7.158-16.249l6.974,16.249h-1.915l-1.831-4.401H116.67z
			 M120.023,47.779l-2.653,6.212h5.244L120.023,47.779z"/>
		<path fill="#FFFFFF" d="M132.834,44.486h2.55c2.818,0,5.186,1.03,5.186,4.196c0,1.255-0.475,2.324-1.523,3.023
			c1.851,0.454,2.941,2.119,2.941,3.972c0,3.086-2.488,4.318-5.553,4.318h-3.601V44.486z M134.563,51.315h0.657
			c1.954,0,3.619-0.226,3.619-2.633c0-2.343-1.48-2.59-3.599-2.59h-0.678V51.315z M134.563,58.393h1.727
			c1.933,0,3.971-0.475,3.971-2.839c0-2.407-2.306-2.756-4.196-2.756h-1.501V58.393z"/>
		<path fill="#FFFFFF" d="M164.018,52.262c0,4.464-3.663,8.003-8.084,8.003c-4.423,0-8.083-3.539-8.083-8.003
			c0-4.442,3.66-8.041,8.083-8.041C160.354,44.221,164.018,47.819,164.018,52.262z M149.577,52.243c0,3.495,2.84,6.415,6.356,6.415
			c3.515,0,6.355-2.92,6.355-6.415c0-3.518-2.798-6.418-6.355-6.418C152.373,45.825,149.577,48.726,149.577,52.243z"/>
		<path fill="#FFFFFF" d="M172.201,59.996h-1.729v-15.51h2.24c2.942,0,5.679,0.783,5.679,4.279c0,2.386-1.501,4.072-3.888,4.278
			l4.936,6.952h-2.117l-4.689-6.807h-0.431V59.996z M172.201,51.667h0.533c1.954,0,3.927-0.37,3.927-2.777
			c0-2.55-1.871-2.797-3.949-2.797h-0.511V51.667z"/>
		<path fill="#FFFFFF" d="M188.057,55.595l-1.872,4.401h-1.893l7.158-16.249l6.973,16.249h-1.913l-1.831-4.401H188.057z
			 M191.407,47.779l-2.651,6.212H194L191.407,47.779z"/>
		<path fill="#FFFFFF" d="M208.333,59.996h-1.727V46.093h-3.743v-1.606h9.255v1.606h-3.785V59.996z"/>
		<path fill="#FFFFFF" d="M233.388,52.262c0,4.464-3.662,8.003-8.083,8.003c-4.424,0-8.083-3.539-8.083-8.003
			c0-4.442,3.659-8.041,8.083-8.041C229.726,44.221,233.388,47.819,233.388,52.262z M218.947,52.243c0,3.495,2.84,6.415,6.357,6.415
			c3.515,0,6.354-2.92,6.354-6.415c0-3.518-2.796-6.418-6.354-6.418C221.744,45.825,218.947,48.726,218.947,52.243z"/>
		<path fill="#FFFFFF" d="M241.568,59.996h-1.728v-15.51h2.242c2.94,0,5.678,0.783,5.678,4.279c0,2.386-1.501,4.072-3.887,4.278
			l4.936,6.952h-2.118l-4.689-6.807h-0.434V59.996z M241.568,51.667h0.535c1.954,0,3.929-0.37,3.929-2.777
			c0-2.55-1.872-2.797-3.949-2.797h-0.515V51.667z"/>
		<path fill="#FFFFFF" d="M253.702,44.486h1.997l3.949,6.912l3.949-6.912h1.995l-5.08,8.846v6.664h-1.729v-6.664L253.702,44.486z"/>
	</g>
	<polygon fill="#618D34" points="32.006,37.934 32.037,37.934 32.006,37.915 	"/>
	<g>
		<polygon fill="#22A16B" points="6.565,23.291 6.506,52.674 14.814,57.274 		"/>
		<polygon fill="#22A16B" points="6.565,23.291 14.274,33.797 15.32,18.1 		"/>
		<polygon fill="#22A16B" points="23.299,42.678 14.274,33.797 22.499,61.794 		"/>
		<polygon fill="#22A16B" points="23.299,42.678 31.909,67.369 31.909,8.513 		"/>
		<polygon fill="#22A16B" points="0.161,56.676 3.949,21.686 0,19.433 		"/>
		<polygon fill="#22A16B" points="32.521,5.219 3.949,21.686 0,19.433 		"/>
		<polygon fill="#22A16B" points="64.83,19.155 32.521,5.219 60.907,21.444 		"/>
		<polygon fill="#22A16B" points="64.83,19.155 64.664,56.394 60.907,21.444 		"/>
	</g>
	<g>
		<polygon fill="#268840" points="6.565,23.291 14.274,33.797 14.836,47.846 14.814,57.274 		"/>
		<polygon fill="#268840" points="23.299,42.678 14.274,33.797 15.32,18.1 		"/>
		<polygon fill="#268840" points="23.299,42.678 31.909,67.369 22.499,61.794 		"/>
		<polygon fill="#268840" points="23.299,42.678 22.322,26.028 22.289,14.069 31.909,8.513 		"/>
		<polygon fill="#268840" points="0.161,56.676 4.087,54.382 3.949,21.686 		"/>
		<polygon fill="#268840" points="0,19.433 32.521,5.219 32.5,0.676 		"/>
		<polygon fill="#268840" points="64.83,19.155 32.521,5.219 32.5,0.676 		"/>
		<polygon fill="#268840" points="60.718,54.143 64.664,56.394 60.907,21.444 		"/>
	</g>
	<g>
		<polygon fill="#3C97C7" points="60.718,54.143 64.664,56.394 34.76,69.323 		"/>
		<polygon fill="#3C97C7" points="32.485,74.523 32.478,84.363 34.76,69.323 		"/>
		<polygon fill="#3C97C7" points="0.161,56.676 4.087,54.382 30.225,69.323 		"/>
		<polygon fill="#3C97C7" points="32.478,84.363 32.485,74.523 30.225,69.323 		"/>
		<path fill="#3C97C7" d="M38.747,11.916l-5.52-3.522c0,9.846,0,49.209,0,59.048L38.747,11.916z"/>
		<polygon fill="#3C97C7" points="42.099,50.051 45.063,60.457 38.659,51.073 		"/>
		<polygon fill="#3C97C7" points="42.099,50.051 44.549,15 45.919,43.895 		"/>
		<polygon fill="#3C97C7" points="46.908,24.238 44.549,15 48.877,17.295 		"/>
		<polygon fill="#3C97C7" points="46.908,24.238 51.126,56.984 47.381,43.598 		"/>
		<polygon fill="#3C97C7" points="45.391,54.135 47.381,43.598 45.919,43.895 		"/>
		<polygon fill="#3C97C7" points="51.638,19.288 53.872,20.337 54.745,27.323 54.382,47.939 53.777,55.22 		"/>
		<path fill="#3C97C7" d="M55.654,33.03c-0.243,0.278-0.522,0.38-0.814,0.349l-0.204-0.021l0.783,3.686L55.654,33.03z"/>
		<path fill="#3C97C7" d="M55.474,27.606l3.405,1.302c-0.225-1.594-0.678-3.207-1.342-4.615l-2.792,3.03l0.347,0.1
			C55.229,27.466,55.357,27.523,55.474,27.606z"/>
		<path fill="#3C97C7" d="M55.731,32.931l2.372,2.432c0.833-1.396,1.089-3.58,0.848-5.861l-3.029,3.098
			C55.862,32.728,55.798,32.838,55.731,32.931z"/>
		<path fill="#3C97C7" d="M54.506,40.849l3.309-2.556c-0.51-0.61-1.333-1.147-2.108-1.259l-0.287,0.01L54.506,40.849z"/>
		<path fill="#3C97C7" d="M56.159,44.479l2.602,1.469c0.503-2.535,0.477-5.027-0.368-6.751l-2.142,4.438
			C56.232,43.913,56.204,44.2,56.159,44.479z"/>
		<path fill="#3C97C7" d="M56.626,51.853c0.816-1.464,1.489-3.203,1.931-4.971l-4.175,1.058L56.626,51.853z"/>
	</g>
	<g>
		<polygon fill="#1369A7" points="37.848,72.071 64.664,56.394 34.76,69.323 		"/>
		<polygon fill="#1369A7" points="37.848,72.071 32.478,84.363 34.76,69.323 		"/>
		<polygon fill="#1369A7" points="0.161,56.676 27.137,72.093 30.225,69.323 		"/>
		<polygon fill="#1369A7" points="32.478,84.363 27.137,72.093 30.225,69.323 		"/>
		<polygon fill="#1369A7" points="33.228,67.441 38.747,11.916 38.659,51.073 		"/>
		<polygon fill="#1369A7" points="33.228,67.441 45.063,60.457 38.659,51.073 		"/>
		<polygon fill="#1369A7" points="42.099,50.051 45.063,60.457 45.919,43.895 		"/>
		<polygon fill="#1369A7" points="46.908,24.238 44.549,15 45.919,43.895 		"/>
		<polygon fill="#1369A7" points="46.908,24.238 51.126,56.984 48.877,17.295 		"/>
		<polygon fill="#1369A7" points="47.907,58.766 51.126,56.984 47.381,43.598 		"/>
		<polygon fill="#1369A7" points="54.636,33.358 54.506,40.849 55.419,37.044 		"/>
		<path fill="#1369A7" d="M57.537,24.293c-0.883-1.865-2.126-3.365-3.665-3.956l0.873,6.986L57.537,24.293z"/>
		<path fill="#1369A7" d="M56.292,30.436c0.009-0.518,0.019-0.982,0,0.013c-0.021,1.185-0.012,0.575,0,0.009
			c-0.02,0.984-0.161,1.677-0.37,2.142l3.029-3.098c-0.022-0.197-0.046-0.396-0.072-0.593l-3.405-1.302
			C55.99,27.955,56.322,28.743,56.292,30.436z"/>
		<path fill="#1369A7" d="M55.706,37.034c1.124-0.012,1.836-0.719,2.397-1.672l-2.372-2.432c-0.025,0.038-0.05,0.069-0.077,0.1
			l-0.235,4.014L55.706,37.034z"/>
		<path fill="#1369A7" d="M56.251,43.635l2.142-4.438c-0.16-0.332-0.355-0.633-0.578-0.904l-3.309,2.556l0.27-0.038
			C55.99,40.661,56.351,42.049,56.251,43.635z"/>
		<path fill="#1369A7" d="M56.159,44.479c-0.247,1.597-0.868,3.152-1.49,3.363l-0.287,0.097l4.175-1.058
			c0.073-0.31,0.145-0.623,0.204-0.934L56.159,44.479z"/>
		<path fill="#1369A7" d="M56.626,51.853l-2.244-3.913l-0.604,7.28C54.805,54.566,55.789,53.355,56.626,51.853z"/>
		<polygon fill="#1369A7" points="51.638,19.288 51.126,56.984 53.777,55.22 		"/>
	</g>
</g>
</svg>
