<?xml version="1.0" encoding="utf-8"?>
<!-- Generator: Adobe Illustrator 16.0.4, SVG Export Plug-In . SVG Version: 6.00 Build 0)  -->
<!DOCTYPE svg PUBLIC "-//W3C//DTD SVG 1.1//EN" "http://www.w3.org/Graphics/SVG/1.1/DTD/svg11.dtd">
<svg version="1.1" id="レイヤー_1" xmlns="http://www.w3.org/2000/svg" xmlns:xlink="http://www.w3.org/1999/xlink" x="0px"
	 y="0px" width="283.464px" height="85.039px" viewBox="0 0 283.464 85.039" enable-background="new 0 0 283.464 85.039"
	 xml:space="preserve">
<rect y="0.473" fill="#040000" width="283.465" height="84.094"/>
<g>
	<g>
		<path fill="#FFFFFF" d="M83.562,9.699h6.043l11.069,14.215h0.062V9.699h6.043v23.249h-6.043l-11.07-14.245h-0.062v14.245h-6.043
			V9.699z"/>
		<path fill="#FFFFFF" d="M116.66,28.909l-1.603,4.039h-6.414l8.942-23.249h6.598l8.757,23.249h-6.444l-1.51-4.039H116.66z
			 M120.885,16.884h-0.062l-2.498,7.4h5.026L120.885,16.884z"/>
		<path fill="#FFFFFF" d="M148.247,9.699h7.492l-9.249,11.009l10.081,12.24h-7.832l-7.8-10.082h-0.062v10.082h-6.043V9.699h6.043
			v9.589h0.062L148.247,9.699z"/>
		<path fill="#FFFFFF" d="M164.138,28.909l-1.604,4.039h-6.413l8.941-23.249h6.6l8.757,23.249h-6.444l-1.512-4.039H164.138z
			 M168.362,16.884h-0.061l-2.498,7.4h5.026L168.362,16.884z"/>
		<path fill="#FFFFFF" d="M205.499,19.968c-0.062,3.392-0.309,6.289-2.374,9.188c-2.282,3.176-5.706,4.563-9.591,4.563
			c-7.307,0-12.394-4.964-12.394-12.272c0-7.554,5.117-12.519,12.61-12.519c4.779,0,8.479,2.158,10.483,6.507L198.5,17.84
			c-0.833-2.22-2.59-3.7-5.026-3.7c-3.978,0-6.044,3.792-6.044,7.339c0,3.607,2.159,7.277,6.137,7.277
			c2.62,0,4.624-1.357,4.872-4.04h-4.934v-4.748H205.499z"/>
		<path fill="#FFFFFF" d="M228.454,9.699v13.073c0,2.992-0.123,5.952-2.436,8.203c-1.943,1.911-4.996,2.59-7.708,2.59
			c-2.715,0-5.768-0.679-7.709-2.59c-2.314-2.251-2.437-5.211-2.437-8.203V9.699h6.044V21.94c0,3.021,0.216,6.32,4.102,6.32
			c3.884,0,4.101-3.299,4.101-6.32V9.699H228.454z"/>
		<path fill="#FFFFFF" d="M248.909,17.5c-1.235-1.664-3.238-2.559-5.303-2.559c-3.7,0-6.198,2.838-6.198,6.444
			c0,3.67,2.528,6.322,6.29,6.322c1.973,0,3.945-0.956,5.211-2.468v7.246c-2.005,0.616-3.454,1.079-5.336,1.079
			c-3.235,0-6.319-1.233-8.725-3.423c-2.56-2.312-3.731-5.334-3.731-8.787c0-3.176,1.203-6.229,3.422-8.512
			c2.283-2.343,5.583-3.761,8.85-3.761c1.942,0,3.732,0.432,5.521,1.172V17.5z"/>
		<path fill="#FFFFFF" d="M267.418,18.672V9.699h6.044v23.249h-6.044v-9.527h-8.726v9.527h-6.044V9.699h6.044v8.973H267.418z"/>
		<path fill="#FFFFFF" d="M283.465,32.948h-6.044V9.699h6.044V32.948z"/>
	</g>
	<g>
		<polygon fill="#EFEFEF" points="188.756,53.991 194,53.991 191.407,47.779 		"/>
		<path fill="#EFEFEF" d="M176.661,48.89c0-2.55-1.871-2.797-3.949-2.797h-0.511v5.574h0.533
			C174.688,51.667,176.661,51.297,176.661,48.89z"/>
		<path fill="#EFEFEF" d="M136.064,52.798h-1.501v5.595h1.727c1.933,0,3.971-0.475,3.971-2.839
			C140.261,53.146,137.955,52.798,136.064,52.798z"/>
		<path fill="#EFEFEF" d="M138.84,48.683c0-2.343-1.48-2.59-3.599-2.59h-0.678v5.223h0.657
			C137.175,51.315,138.84,51.09,138.84,48.683z"/>
		<polygon fill="#EFEFEF" points="117.37,53.991 122.614,53.991 120.023,47.779 		"/>
		<path fill="#EFEFEF" d="M155.933,45.825c-3.56,0-6.355,2.9-6.355,6.418c0,3.495,2.84,6.415,6.355,6.415s6.356-2.92,6.356-6.415
			C162.289,48.726,159.491,45.825,155.933,45.825z"/>
		<path fill="#EFEFEF" d="M83.397,38.661V65.8h199.894V38.661H83.397z M108.525,59.996h-6.006v-15.51h1.727v13.906h4.279V59.996z
			 M125.123,59.996l-1.831-4.401h-6.622l-1.871,4.401h-1.893l7.158-16.248l6.974,16.248H125.123z M136.435,59.996h-3.601v-15.51
			h2.55c2.818,0,5.186,1.03,5.186,4.196c0,1.255-0.475,2.324-1.523,3.023c1.851,0.454,2.941,2.119,2.941,3.972
			C141.987,58.764,139.499,59.996,136.435,59.996z M155.933,60.265c-4.422,0-8.083-3.539-8.083-8.003
			c0-4.442,3.661-8.041,8.083-8.041s8.085,3.599,8.085,8.041C164.018,56.726,160.354,60.265,155.933,60.265z M177.321,59.996
			l-4.69-6.807h-0.43v6.807h-1.729v-15.51h2.24c2.942,0,5.679,0.783,5.679,4.279c0,2.386-1.501,4.072-3.889,4.278l4.937,6.952
			H177.321z M196.51,59.996l-1.831-4.401h-6.622l-1.872,4.401h-1.893l7.158-16.248l6.972,16.248H196.51z M212.118,46.093h-3.785
			v13.903h-1.727V46.093h-3.743v-1.606h9.255V46.093z M225.305,60.265c-4.424,0-8.083-3.539-8.083-8.003
			c0-4.442,3.659-8.041,8.083-8.041c4.421,0,8.083,3.599,8.083,8.041C233.388,56.726,229.726,60.265,225.305,60.265z
			 M246.691,59.996l-4.689-6.807h-0.434v6.807h-1.729v-15.51h2.243c2.94,0,5.677,0.783,5.677,4.279c0,2.386-1.5,4.072-3.886,4.278
			l4.936,6.952H246.691z M260.513,53.332v6.664h-1.729v-6.664l-5.082-8.846h1.998l3.949,6.912l3.949-6.912h1.995L260.513,53.332z"/>
		<path fill="#EFEFEF" d="M225.305,45.825c-3.561,0-6.358,2.9-6.358,6.418c0,3.495,2.841,6.415,6.358,6.415
			c3.515,0,6.354-2.92,6.354-6.415C231.658,48.726,228.862,45.825,225.305,45.825z"/>
		<path fill="#EFEFEF" d="M246.032,48.89c0-2.55-1.873-2.797-3.949-2.797h-0.515v5.574h0.535
			C244.058,51.667,246.032,51.297,246.032,48.89z"/>
	</g>
	<polygon fill="#618D34" points="32.006,37.934 32.037,37.934 32.006,37.915 	"/>
	<g>
		<polygon fill="#B5B5B6" points="6.565,23.291 6.506,52.674 14.814,57.274 		"/>
		<polygon fill="#B5B5B6" points="6.565,23.291 14.274,33.797 15.32,18.1 		"/>
		<polygon fill="#B5B5B6" points="23.299,42.679 14.274,33.797 22.499,61.794 		"/>
		<polygon fill="#B5B5B6" points="23.299,42.679 31.909,67.369 31.909,8.513 		"/>
		<polygon fill="#B5B5B6" points="0.161,56.676 3.949,21.686 0,19.433 		"/>
		<polygon fill="#B5B5B6" points="32.521,5.219 3.949,21.686 0,19.433 		"/>
		<polygon fill="#B5B5B6" points="64.83,19.155 32.521,5.219 60.907,21.444 		"/>
		<polygon fill="#B5B5B6" points="64.83,19.155 64.664,56.394 60.907,21.444 		"/>
	</g>
	<g>
		<polygon fill="#EFEFEF" points="6.565,23.291 14.274,33.797 14.836,47.846 14.814,57.274 		"/>
		<polygon fill="#EFEFEF" points="23.299,42.679 14.274,33.797 15.32,18.1 		"/>
		<polygon fill="#EFEFEF" points="23.299,42.679 31.909,67.369 22.499,61.794 		"/>
		<polygon fill="#EFEFEF" points="23.299,42.679 22.322,26.028 22.289,14.069 31.909,8.513 		"/>
		<polygon fill="#EFEFEF" points="0.161,56.676 4.087,54.382 3.949,21.686 		"/>
		<polygon fill="#EFEFEF" points="0,19.433 32.521,5.219 32.5,0.676 		"/>
		<polygon fill="#EFEFEF" points="64.83,19.155 32.521,5.219 32.5,0.676 		"/>
		<polygon fill="#EFEFEF" points="60.718,54.143 64.664,56.394 60.907,21.444 		"/>
	</g>
	<g>
		<polygon fill="#C9CACA" points="60.718,54.143 64.664,56.394 34.76,69.323 		"/>
		<polygon fill="#C9CACA" points="32.485,74.523 32.478,84.363 34.76,69.323 		"/>
		<polygon fill="#C9CACA" points="0.161,56.676 4.087,54.382 30.225,69.323 		"/>
		<polygon fill="#C9CACA" points="32.478,84.363 32.485,74.523 30.225,69.323 		"/>
		<path fill="#C9CACA" d="M38.747,11.916l-5.52-3.522c0,9.846,0,49.209,0,59.048L38.747,11.916z"/>
		<polygon fill="#C9CACA" points="42.099,50.051 45.063,60.457 38.659,51.073 		"/>
		<polygon fill="#C9CACA" points="42.099,50.051 44.549,15 45.919,43.895 		"/>
		<polygon fill="#C9CACA" points="46.908,24.238 44.549,15 48.877,17.295 		"/>
		<polygon fill="#C9CACA" points="46.908,24.238 51.126,56.984 47.381,43.599 		"/>
		<polygon fill="#C9CACA" points="45.391,54.135 47.381,43.599 45.919,43.895 		"/>
		<polygon fill="#C9CACA" points="51.638,19.288 53.872,20.337 54.745,27.323 54.382,47.939 53.777,55.22 		"/>
		<path fill="#C9CACA" d="M55.654,33.03c-0.243,0.278-0.522,0.38-0.814,0.349l-0.204-0.021l0.783,3.686L55.654,33.03z"/>
		<path fill="#C9CACA" d="M55.474,27.606l3.405,1.302c-0.225-1.594-0.678-3.207-1.342-4.615l-2.792,3.03l0.347,0.1
			C55.229,27.466,55.357,27.523,55.474,27.606z"/>
		<path fill="#C9CACA" d="M55.731,32.931l2.372,2.432c0.833-1.396,1.089-3.58,0.848-5.861l-3.029,3.098
			C55.862,32.728,55.798,32.838,55.731,32.931z"/>
		<path fill="#C9CACA" d="M54.506,40.849l3.309-2.556c-0.51-0.61-1.333-1.147-2.108-1.259l-0.287,0.01L54.506,40.849z"/>
		<path fill="#C9CACA" d="M56.159,44.479l2.602,1.469c0.503-2.534,0.477-5.027-0.368-6.751l-2.142,4.438
			C56.232,43.913,56.204,44.2,56.159,44.479z"/>
		<path fill="#C9CACA" d="M56.626,51.853c0.816-1.464,1.489-3.203,1.931-4.971l-4.175,1.058L56.626,51.853z"/>
	</g>
	<g>
		<polygon fill="#FFFFFF" points="37.848,72.071 64.664,56.394 34.76,69.323 		"/>
		<polygon fill="#FFFFFF" points="37.848,72.071 32.478,84.363 34.76,69.323 		"/>
		<polygon fill="#FFFFFF" points="0.161,56.676 27.137,72.093 30.225,69.323 		"/>
		<polygon fill="#FFFFFF" points="32.478,84.363 27.137,72.093 30.225,69.323 		"/>
		<polygon fill="#FFFFFF" points="33.228,67.441 38.747,11.916 38.659,51.073 		"/>
		<polygon fill="#FFFFFF" points="33.228,67.441 45.063,60.457 38.659,51.073 		"/>
		<polygon fill="#FFFFFF" points="42.099,50.051 45.063,60.457 45.919,43.895 		"/>
		<polygon fill="#FFFFFF" points="46.908,24.238 44.549,15 45.919,43.895 		"/>
		<polygon fill="#FFFFFF" points="46.908,24.238 51.126,56.984 48.877,17.295 		"/>
		<polygon fill="#FFFFFF" points="47.907,58.766 51.126,56.984 47.381,43.599 		"/>
		<polygon fill="#FFFFFF" points="54.636,33.358 54.506,40.849 55.419,37.044 		"/>
		<path fill="#FFFFFF" d="M57.537,24.293c-0.883-1.865-2.126-3.365-3.665-3.956l0.873,6.986L57.537,24.293z"/>
		<path fill="#FFFFFF" d="M56.292,30.436c0.009-0.518,0.019-0.982,0,0.013c-0.021,1.185-0.012,0.575,0,0.009
			c-0.02,0.984-0.161,1.677-0.37,2.142l3.029-3.098c-0.022-0.197-0.046-0.396-0.072-0.593l-3.405-1.302
			C55.99,27.955,56.322,28.743,56.292,30.436z"/>
		<path fill="#FFFFFF" d="M55.706,37.034c1.124-0.012,1.836-0.719,2.397-1.672l-2.372-2.432c-0.025,0.038-0.05,0.069-0.077,0.1
			l-0.235,4.014L55.706,37.034z"/>
		<path fill="#FFFFFF" d="M56.251,43.635l2.142-4.438c-0.16-0.332-0.355-0.633-0.578-0.904l-3.309,2.556l0.27-0.038
			C55.99,40.661,56.351,42.049,56.251,43.635z"/>
		<path fill="#FFFFFF" d="M56.159,44.479c-0.247,1.597-0.868,3.152-1.49,3.363l-0.287,0.097l4.175-1.058
			c0.073-0.31,0.145-0.623,0.204-0.934L56.159,44.479z"/>
		<path fill="#FFFFFF" d="M56.626,51.853l-2.244-3.913l-0.604,7.28C54.805,54.566,55.789,53.355,56.626,51.853z"/>
		<polygon fill="#FFFFFF" points="51.638,19.288 51.126,56.984 53.777,55.22 		"/>
	</g>
</g>
</svg>
