<?xml version="1.0" encoding="utf-8"?>
<!-- Generator: Adobe Illustrator 16.0.4, SVG Export Plug-In . SVG Version: 6.00 Build 0)  -->
<!DOCTYPE svg PUBLIC "-//W3C//DTD SVG 1.1//EN" "http://www.w3.org/Graphics/SVG/1.1/DTD/svg11.dtd">
<svg version="1.1" id="レイヤー_1" xmlns="http://www.w3.org/2000/svg" xmlns:xlink="http://www.w3.org/1999/xlink" x="0px"
	 y="0px" width="283.464px" height="368.504px" viewBox="0 0 283.464 368.504" enable-background="new 0 0 283.464 368.504"
	 xml:space="preserve">
<rect fill="#231815" width="283.465" height="368.504"/>
<g>
	<polygon fill="#639133" points="139.937,164.201 140.093,164.201 139.937,164.11 	"/>
	<g>
		<polygon fill="#EEEEEF" points="28.702,100.172 28.455,228.647 64.783,248.763 		"/>
		<polygon fill="#EEEEEF" points="28.702,100.172 62.415,146.102 66.982,77.468 		"/>
		<polygon fill="#EEEEEF" points="101.878,184.928 62.415,146.102 98.378,268.527 		"/>
		<polygon fill="#EEEEEF" points="101.878,184.928 139.533,292.897 139.533,35.545 		"/>
		<polygon fill="#EEEEEF" points="0.701,246.135 17.252,93.172 -0.001,83.297 		"/>
		<polygon fill="#EEEEEF" points="142.188,21.154 17.252,93.172 -0.001,83.297 		"/>
		<polygon fill="#EEEEEF" points="283.465,82.086 142.188,21.154 266.315,92.092 		"/>
		<polygon fill="#EEEEEF" points="283.465,82.086 282.736,244.911 266.315,92.092 		"/>
	</g>
	<g>
		<polygon fill="#B4B4B5" points="28.702,100.172 62.415,146.102 64.874,207.542 64.783,248.763 		"/>
		<polygon fill="#B4B4B5" points="101.878,184.928 62.415,146.102 66.982,77.468 		"/>
		<polygon fill="#B4B4B5" points="101.878,184.928 139.533,292.897 98.378,268.527 		"/>
		<polygon fill="#B4B4B5" points="101.878,184.928 97.598,112.168 97.468,59.863 139.533,35.545 		"/>
		<polygon fill="#B4B4B5" points="0.701,246.135 17.877,236.128 17.252,93.172 		"/>
		<polygon fill="#B4B4B5" points="-0.001,83.297 142.188,21.154 142.109,1.286 		"/>
		<polygon fill="#B4B4B5" points="283.465,82.086 142.188,21.154 142.109,1.286 		"/>
		<polygon fill="#B4B4B5" points="265.495,235.075 282.736,244.911 266.315,92.092 		"/>
	</g>
	<g>
		<polygon fill="#C8C9CA" points="265.495,235.075 282.736,244.911 151.984,301.445 		"/>
		<polygon fill="#C8C9CA" points="142.058,324.189 142.019,367.218 151.984,301.445 		"/>
		<polygon fill="#C8C9CA" points="0.701,246.135 17.877,236.128 132.156,301.458 		"/>
		<polygon fill="#C8C9CA" points="142.019,367.218 142.058,324.189 132.156,301.458 		"/>
		<path fill="#C8C9CA" d="M169.42,50.43l-24.122-15.392c0,43.041,0,215.182,0,258.171L169.42,50.43z"/>
		<polygon fill="#C8C9CA" points="184.084,217.171 197.03,262.685 169.03,221.647 		"/>
		<polygon fill="#C8C9CA" points="184.084,217.171 194.778,63.923 200.791,190.263 		"/>
		<polygon fill="#C8C9CA" points="205.11,104.31 194.778,63.923 213.711,73.967 		"/>
		<polygon fill="#C8C9CA" points="205.11,104.31 223.548,247.5 207.18,188.961 		"/>
		<polygon fill="#C8C9CA" points="198.476,235.036 207.18,188.961 200.791,190.263 		"/>
		<polygon fill="#C8C9CA" points="225.799,82.659 235.557,87.239 239.382,117.815 237.782,207.959 235.154,239.784 		"/>
		<path fill="#C8C9CA" d="M243.338,142.745c-1.041,1.224-2.276,1.666-3.539,1.536l-0.911-0.078l3.436,16.107L243.338,142.745z"/>
		<path fill="#C8C9CA" d="M242.558,119.039l14.91,5.699c-1.002-6.974-2.991-14.027-5.881-20.182l-12.205,13.259l1.51,0.429
			C241.489,118.415,242.063,118.675,242.558,119.039z"/>
		<path fill="#C8C9CA" d="M243.702,142.329l10.357,10.617c3.643-6.089,4.762-15.64,3.721-25.619l-13.259,13.545
			C244.262,141.444,243.976,141.913,243.702,142.329z"/>
		<path fill="#C8C9CA" d="M238.315,176.939l14.469-11.164c-2.225-2.681-5.829-5.022-9.213-5.517l-1.248,0.052L238.315,176.939z"/>
		<path fill="#C8C9CA" d="M245.55,192.839l11.385,6.402c2.199-11.085,2.095-21.989-1.601-29.51l-9.38,19.388
			C245.874,190.355,245.732,191.604,245.55,192.839z"/>
		<path fill="#C8C9CA" d="M247.593,225.056c3.578-6.402,6.518-14,8.444-21.729l-18.255,4.632L247.593,225.056z"/>
	</g>
	<g>
		<g>
			<polygon fill="#FFFFFF" points="165.504,313.48 282.736,244.911 151.984,301.445 			"/>
			<polygon fill="#FFFFFF" points="165.504,313.48 142.019,367.218 151.984,301.445 			"/>
			<polygon fill="#FFFFFF" points="0.701,246.135 118.649,313.559 132.156,301.458 			"/>
			<polygon fill="#FFFFFF" points="142.019,367.218 118.649,313.559 132.156,301.458 			"/>
			<polygon fill="#FFFFFF" points="145.298,293.209 169.42,50.43 169.03,221.647 			"/>
			<polygon fill="#FFFFFF" points="145.298,293.209 197.03,262.685 169.03,221.647 			"/>
			<polygon fill="#FFFFFF" points="184.084,217.171 197.03,262.685 200.791,190.263 			"/>
			<polygon fill="#FFFFFF" points="205.11,104.31 194.778,63.923 200.791,190.263 			"/>
			<polygon fill="#FFFFFF" points="205.11,104.31 223.548,247.5 213.711,73.967 			"/>
			<polygon fill="#FFFFFF" points="209.469,255.293 223.548,247.5 207.18,188.961 			"/>
			<polygon fill="#FFFFFF" points="238.888,144.203 238.315,176.939 242.323,160.311 			"/>
			<path fill="#FFFFFF" d="M251.587,104.557c-3.852-8.158-9.29-14.716-16.03-17.318l3.825,30.577L251.587,104.557z"/>
			<path fill="#FFFFFF" d="M246.122,131.426c0.052-2.265,0.104-4.308,0,0.039c-0.078,5.191-0.026,2.511,0,0.039
				c-0.078,4.307-0.676,7.339-1.601,9.369l13.259-13.545c-0.104-0.872-0.207-1.731-0.312-2.589l-14.91-5.699
				C244.82,120.561,246.266,124.009,246.122,131.426z"/>
			<path fill="#FFFFFF" d="M243.571,160.259c4.919-0.039,8.016-3.135,10.488-7.312l-10.357-10.617
				c-0.131,0.156-0.234,0.286-0.364,0.416l-1.015,17.565L243.571,160.259z"/>
			<path fill="#FFFFFF" d="M245.954,189.119l9.38-19.388c-0.703-1.457-1.561-2.784-2.55-3.955l-14.469,11.164l1.197-0.156
				C244.82,176.12,246.382,182.196,245.954,189.119z"/>
			<path fill="#FFFFFF" d="M245.55,192.839c-1.067,6.948-3.787,13.767-6.506,14.677l-1.262,0.443l18.255-4.632
				c0.338-1.353,0.624-2.733,0.897-4.086L245.55,192.839z"/>
			<path fill="#FFFFFF" d="M247.593,225.056l-9.811-17.097l-2.628,31.825C239.629,236.922,243.949,231.639,247.593,225.056z"/>
			<polygon fill="#FFFFFF" points="225.799,82.659 223.548,247.5 235.154,239.784 			"/>
		</g>
	</g>
</g>
</svg>
