<?xml version="1.0" encoding="utf-8"?>
<!-- Generator: Adobe Illustrator 16.0.4, SVG Export Plug-In . SVG Version: 6.00 Build 0)  -->
<!DOCTYPE svg PUBLIC "-//W3C//DTD SVG 1.1//EN" "http://www.w3.org/Graphics/SVG/1.1/DTD/svg11.dtd">
<svg version="1.1" id="レイヤー_1" xmlns="http://www.w3.org/2000/svg" xmlns:xlink="http://www.w3.org/1999/xlink" x="0px"
	 y="0px" width="283.46px" height="368.504px" viewBox="0 0 283.46 368.504" enable-background="new 0 0 283.46 368.504"
	 xml:space="preserve">
<g>
	<polygon fill="#639133" points="140.586,164.202 140.742,164.202 140.586,164.111 	"/>
	<g>
		<polygon fill="#888888" points="29.353,100.173 29.105,228.646 65.433,248.762 		"/>
		<polygon fill="#888888" points="29.353,100.173 63.065,146.103 67.632,77.468 		"/>
		<polygon fill="#888888" points="102.528,184.929 63.065,146.103 99.028,268.526 		"/>
		<polygon fill="#888888" points="102.528,184.929 140.183,292.896 140.183,35.546 		"/>
		<polygon fill="#888888" points="1.352,246.134 17.902,93.173 0.649,83.297 		"/>
		<polygon fill="#888888" points="142.837,21.155 17.902,93.173 0.649,83.297 		"/>
		<polygon fill="#888888" points="284.114,82.087 142.837,21.155 266.965,92.093 		"/>
		<polygon fill="#888888" points="284.114,82.087 283.386,244.911 266.965,92.093 		"/>
	</g>
	<g>
		<polygon fill="#717071" points="29.353,100.173 63.065,146.103 65.524,207.543 65.433,248.762 		"/>
		<polygon fill="#717071" points="102.528,184.929 63.065,146.103 67.632,77.468 		"/>
		<polygon fill="#717071" points="102.528,184.929 140.183,292.896 99.028,268.526 		"/>
		<polygon fill="#717071" points="102.528,184.929 98.248,112.169 98.117,59.864 140.183,35.546 		"/>
		<polygon fill="#717071" points="1.352,246.134 18.527,236.129 17.902,93.173 		"/>
		<polygon fill="#717071" points="0.649,83.297 142.837,21.155 142.759,1.287 		"/>
		<polygon fill="#717071" points="284.114,82.087 142.837,21.155 142.759,1.287 		"/>
		<polygon fill="#717071" points="266.146,235.074 283.386,244.911 266.965,92.093 		"/>
	</g>
	<g>
		<polygon fill="#9E9E9F" points="266.146,235.074 283.386,244.911 152.635,301.445 		"/>
		<polygon fill="#9E9E9F" points="142.707,324.189 142.668,367.217 152.635,301.445 		"/>
		<polygon fill="#9E9E9F" points="1.352,246.134 18.527,236.129 132.806,301.458 		"/>
		<polygon fill="#9E9E9F" points="142.668,367.217 142.707,324.189 132.806,301.458 		"/>
		<path fill="#9E9E9F" d="M170.07,50.431l-24.123-15.392c0,43.041,0,215.181,0,258.17L170.07,50.431z"/>
		<polygon fill="#9E9E9F" points="184.733,217.171 197.68,262.685 169.68,221.646 		"/>
		<polygon fill="#9E9E9F" points="184.733,217.171 195.429,63.923 201.44,190.264 		"/>
		<polygon fill="#9E9E9F" points="205.76,104.311 195.429,63.923 214.36,73.968 		"/>
		<polygon fill="#9E9E9F" points="205.76,104.311 224.197,247.5 207.829,188.963 		"/>
		<polygon fill="#9E9E9F" points="199.124,235.035 207.829,188.963 201.44,190.264 		"/>
		<polygon fill="#9E9E9F" points="226.448,82.66 236.206,87.24 240.031,117.816 238.432,207.959 235.803,239.785 		"/>
		<path fill="#9E9E9F" d="M243.987,142.746c-1.041,1.223-2.277,1.666-3.539,1.535l-0.911-0.078l3.436,16.108L243.987,142.746z"/>
		<path fill="#9E9E9F" d="M243.207,119.04l14.91,5.699c-1.002-6.974-2.992-14.026-5.881-20.181l-12.205,13.259l1.51,0.429
			C242.14,118.415,242.712,118.675,243.207,119.04z"/>
		<path fill="#9E9E9F" d="M244.352,142.33l10.357,10.617c3.643-6.089,4.762-15.64,3.721-25.619l-13.259,13.545
			C244.911,141.445,244.625,141.914,244.352,142.33z"/>
		<path fill="#9E9E9F" d="M238.965,176.94l14.469-11.164c-2.225-2.68-5.829-5.022-9.212-5.517l-1.249,0.052L238.965,176.94z"/>
		<path fill="#9E9E9F" d="M246.199,192.84l11.385,6.401c2.199-11.085,2.095-21.989-1.601-29.51l-9.381,19.388
			C246.524,190.354,246.381,191.604,246.199,192.84z"/>
		<path fill="#9E9E9F" d="M248.242,225.056c3.578-6.401,6.519-14,8.444-21.729l-18.255,4.633L248.242,225.056z"/>
	</g>
	<g>
		<g>
			<polygon fill="#595757" points="166.153,313.48 283.386,244.911 152.635,301.445 			"/>
			<polygon fill="#595757" points="166.153,313.48 142.668,367.217 152.635,301.445 			"/>
			<polygon fill="#595757" points="1.352,246.134 119.3,313.559 132.806,301.458 			"/>
			<polygon fill="#595757" points="142.668,367.217 119.3,313.559 132.806,301.458 			"/>
			<polygon fill="#595757" points="145.947,293.209 170.07,50.431 169.68,221.646 			"/>
			<polygon fill="#595757" points="145.947,293.209 197.68,262.685 169.68,221.646 			"/>
			<polygon fill="#595757" points="184.733,217.171 197.68,262.685 201.44,190.264 			"/>
			<polygon fill="#595757" points="205.76,104.311 195.429,63.923 201.44,190.264 			"/>
			<polygon fill="#595757" points="205.76,104.311 224.197,247.5 214.36,73.968 			"/>
			<polygon fill="#595757" points="210.119,255.294 224.197,247.5 207.829,188.963 			"/>
			<polygon fill="#595757" points="239.537,144.203 238.965,176.94 242.973,160.312 			"/>
			<path fill="#595757" d="M252.236,104.558c-3.852-8.158-9.29-14.715-16.03-17.318l3.825,30.577L252.236,104.558z"/>
			<path fill="#595757" d="M246.771,131.426c0.053-2.264,0.104-4.307,0,0.039c-0.078,5.191-0.025,2.511,0,0.039
				c-0.078,4.307-0.677,7.338-1.601,9.368l13.259-13.545c-0.104-0.872-0.208-1.73-0.312-2.589l-14.91-5.699
				C245.471,120.562,246.915,124.01,246.771,131.426z"/>
			<path fill="#595757" d="M244.222,160.259c4.918-0.039,8.015-3.136,10.487-7.312l-10.357-10.617
				c-0.13,0.156-0.234,0.286-0.364,0.417l-1.015,17.565L244.222,160.259z"/>
			<path fill="#595757" d="M246.603,189.119l9.381-19.388c-0.702-1.457-1.562-2.784-2.55-3.956l-14.469,11.164l1.197-0.156
				C245.471,176.12,247.032,182.196,246.603,189.119z"/>
			<path fill="#595757" d="M246.199,192.84c-1.067,6.947-3.786,13.766-6.506,14.677l-1.262,0.442l18.255-4.633
				c0.338-1.353,0.624-2.732,0.897-4.085L246.199,192.84z"/>
			<path fill="#595757" d="M248.242,225.056l-9.811-17.097l-2.629,31.826C240.279,236.922,244.599,231.639,248.242,225.056z"/>
			<polygon fill="#595757" points="226.448,82.66 224.197,247.5 235.803,239.785 			"/>
		</g>
	</g>
</g>
</svg>
