<?xml version="1.0" encoding="utf-8"?>
<!-- Generator: Adobe Illustrator 16.0.4, SVG Export Plug-In . SVG Version: 6.00 Build 0)  -->
<!DOCTYPE svg PUBLIC "-//W3C//DTD SVG 1.1//EN" "http://www.w3.org/Graphics/SVG/1.1/DTD/svg11.dtd">
<svg version="1.1" id="レイヤー_1" xmlns="http://www.w3.org/2000/svg" xmlns:xlink="http://www.w3.org/1999/xlink" x="0px"
	 y="0px" width="283.464px" height="368.504px" viewBox="0 0 283.464 368.504" enable-background="new 0 0 283.464 368.504"
	 xml:space="preserve">
<g>
	<polygon fill="#618D34" points="139.936,164.202 140.085,164.202 139.936,164.117 	"/>
	<g>
		<polygon fill="#22A16B" points="28.699,100.182 28.447,228.656 64.782,248.763 		"/>
		<polygon fill="#22A16B" points="28.699,100.182 62.411,146.115 66.985,77.477 		"/>
		<polygon fill="#22A16B" points="101.864,184.943 62.411,146.115 98.373,268.54 		"/>
		<polygon fill="#22A16B" points="101.864,184.943 139.525,292.903 139.525,35.55 		"/>
		<polygon fill="#22A16B" points="0.7,246.14 17.253,93.165 0,83.303 		"/>
		<polygon fill="#22A16B" points="142.195,21.154 17.253,93.165 0,83.303 		"/>
		<polygon fill="#22A16B" points="283.464,82.092 142.195,21.154 266.305,92.1 		"/>
		<polygon fill="#22A16B" points="283.464,82.092 282.736,244.92 266.305,92.1 		"/>
	</g>
	<g>
		<polygon fill="#268840" points="28.699,100.182 62.411,146.115 64.866,207.535 64.782,248.763 		"/>
		<polygon fill="#268840" points="101.864,184.943 62.411,146.115 66.985,77.477 		"/>
		<polygon fill="#268840" points="101.864,184.943 139.525,292.903 98.373,268.54 		"/>
		<polygon fill="#268840" points="101.864,184.943 97.598,112.151 97.458,59.86 139.525,35.55 		"/>
		<polygon fill="#268840" points="0.7,246.14 17.869,236.132 17.253,93.165 		"/>
		<polygon fill="#268840" points="0,83.303 142.195,21.154 142.102,1.287 		"/>
		<polygon fill="#268840" points="283.464,82.092 142.195,21.154 142.102,1.287 		"/>
		<polygon fill="#268840" points="265.484,235.07 282.736,244.92 266.305,92.1 		"/>
	</g>
	<g>
		<polygon fill="#3C97C7" points="265.484,235.07 282.736,244.92 151.978,301.445 		"/>
		<polygon fill="#3C97C7" points="142.046,324.188 142.008,367.217 151.978,301.445 		"/>
		<polygon fill="#3C97C7" points="0.7,246.14 17.869,236.132 132.15,301.455 		"/>
		<polygon fill="#3C97C7" points="142.008,367.217 142.046,324.188 132.15,301.455 		"/>
		<path fill="#3C97C7" d="M169.411,50.44l-24.116-15.401c0,43.048,0,215.181,0,258.182L169.411,50.44z"/>
		<polygon fill="#3C97C7" points="184.075,217.174 197.033,262.683 169.025,221.66 		"/>
		<polygon fill="#3C97C7" points="184.075,217.174 194.786,63.916 200.779,190.268 		"/>
		<polygon fill="#3C97C7" points="205.099,104.312 194.786,63.916 213.707,73.961 		"/>
		<polygon fill="#3C97C7" points="205.099,104.312 223.547,247.496 207.171,188.97 		"/>
		<polygon fill="#3C97C7" points="198.47,235.042 207.171,188.97 200.779,190.268 		"/>
		<polygon fill="#3C97C7" points="225.788,82.662 235.546,87.252 239.375,117.812 237.775,207.965 235.142,239.782 		"/>
		<path fill="#3C97C7" d="M243.339,142.757c-1.046,1.214-2.278,1.662-3.549,1.531l-0.896-0.093l3.417,16.12L243.339,142.757z"/>
		<path fill="#3C97C7" d="M242.554,119.034l14.895,5.71c-0.984-6.974-2.969-14.029-5.876-20.181l-12.198,13.248l1.512,0.445
			C241.484,118.428,242.044,118.68,242.554,119.034z"/>
		<path fill="#3C97C7" d="M243.688,142.333l10.368,10.625c3.635-6.112,4.755-15.653,3.71-25.633l-13.251,13.546
			C244.253,141.438,243.974,141.917,243.688,142.333z"/>
		<path fill="#3C97C7" d="M238.316,176.936l14.471-11.159c-2.229-2.677-5.832-5.014-9.218-5.512l-1.257,0.05L238.316,176.936z"/>
		<path fill="#3C97C7" d="M245.542,192.831l11.39,6.408c2.196-11.076,2.085-21.977-1.606-29.511l-9.373,19.4
			C245.878,190.349,245.742,191.593,245.542,192.831z"/>
		<path fill="#3C97C7" d="M247.59,225.062c3.572-6.405,6.522-14.014,8.438-21.734l-18.254,4.637L247.59,225.062z"/>
	</g>
	<g>
		<polygon fill="#1369A7" points="165.496,313.474 282.736,244.92 151.978,301.445 		"/>
		<polygon fill="#1369A7" points="165.496,313.474 142.008,367.217 151.978,301.445 		"/>
		<polygon fill="#1369A7" points="0.7,246.14 118.65,313.566 132.15,301.455 		"/>
		<polygon fill="#1369A7" points="142.008,367.217 118.65,313.566 132.15,301.455 		"/>
		<polygon fill="#1369A7" points="145.294,293.221 169.411,50.44 169.025,221.66 		"/>
		<polygon fill="#1369A7" points="145.294,293.221 197.033,262.683 169.025,221.66 		"/>
		<polygon fill="#1369A7" points="184.075,217.174 197.033,262.683 200.779,190.268 		"/>
		<polygon fill="#1369A7" points="205.099,104.312 194.786,63.916 200.779,190.268 		"/>
		<polygon fill="#1369A7" points="205.099,104.312 223.547,247.496 213.707,73.961 		"/>
		<polygon fill="#1369A7" points="209.468,255.292 223.547,247.496 207.171,188.97 		"/>
		<polygon fill="#1369A7" points="238.895,144.195 238.316,176.936 242.312,160.314 		"/>
		<path fill="#1369A7" d="M251.573,104.563c-3.853-8.163-9.286-14.722-16.026-17.312l3.828,30.56L251.573,104.563z"/>
		<path fill="#1369A7" d="M246.133,131.423c0.044-2.269,0.081-4.303,0,0.047c-0.093,5.178-0.05,2.521,0,0.037
			c-0.087,4.304-0.703,7.335-1.618,9.364l13.251-13.546c-0.094-0.859-0.199-1.718-0.317-2.58l-14.895-5.71
			C244.808,120.565,246.27,124.017,246.133,131.423z"/>
		<path fill="#1369A7" d="M243.569,160.265c4.92-0.05,8.023-3.143,10.487-7.307l-10.368-10.625c-0.113,0.149-0.225,0.29-0.349,0.423
			l-1.027,17.558L243.569,160.265z"/>
		<path fill="#1369A7" d="M245.953,189.129l9.373-19.4c-0.709-1.45-1.556-2.773-2.539-3.952l-14.471,11.159l1.195-0.149
			C244.814,176.12,246.382,182.198,245.953,189.129z"/>
		<path fill="#1369A7" d="M245.542,192.831c-1.064,6.968-3.791,13.762-6.505,14.698l-1.263,0.436l18.254-4.637
			c0.337-1.363,0.636-2.729,0.903-4.089L245.542,192.831z"/>
		<path fill="#1369A7" d="M247.59,225.062l-9.815-17.098l-2.633,31.817C239.623,236.929,243.936,231.625,247.59,225.062z"/>
		<polygon fill="#1369A7" points="225.788,82.662 223.547,247.496 235.142,239.782 		"/>
	</g>
</g>
</svg>
